<?xml version="1.0" encoding="UTF-8" standalone="no" ?>
<!DOCTYPE svg PUBLIC "-//W3C//DTD SVG 1.1//EN" "http://www.w3.org/Graphics/SVG/1.1/DTD/svg11.dtd">
<svg xmlns="http://www.w3.org/2000/svg" xmlns:xlink="http://www.w3.org/1999/xlink" version="1.1" width="1080" height="1080" viewBox="0 0 1080 1080" xml:space="preserve">
<desc>Created with Fabric.js 5.2.4</desc>
<defs>
</defs>
<g transform="matrix(1 0 0 1 540 540)" id="99c79ddb-7da7-4eb1-83de-90b9bd474609"  >
<rect style="stroke: none; stroke-width: 1; stroke-dasharray: none; stroke-linecap: butt; stroke-dashoffset: 0; stroke-linejoin: miter; stroke-miterlimit: 4; fill: rgb(255,255,255); fill-rule: nonzero; opacity: 1; visibility: hidden;" vector-effect="non-scaling-stroke"  x="-540" y="-540" rx="0" ry="0" width="1080" height="1080" />
</g>
<g transform="matrix(1 0 0 1 540 540)" id="3243b22d-f899-4567-ac60-9d5deb1f0030"  >
</g>
<g transform="matrix(4.76 0 0 4.76 540 540)"  >
<g style=""   >
		<g transform="matrix(1 0 0 1 -100.75 8.9)"  >
<path style="stroke: none; stroke-width: 1; stroke-dasharray: none; stroke-linecap: butt; stroke-dashoffset: 0; stroke-linejoin: miter; stroke-miterlimit: 4; fill: rgb(51,51,51); fill-rule: nonzero; opacity: 1;" vector-effect="non-scaling-stroke"  transform=" translate(-12.75, -33.4)" d="M 15.2132 48.9974 C 12.1585 48.9974 9.48523 48.3643 7.19502 47.0962 C 4.90481 45.8282 3.13132 44.016 1.87944 41.6596 C 0.625937 39.3033 0 36.5001 0 33.2517 C 0 30.0033 0.635717 27.2297 1.90878 24.9328 C 3.18022 22.6358 4.95371 20.8731 7.22436 19.6446 C 9.49501 18.4161 12.1585 17.8027 15.2132 17.8027 C 17.1709 17.8027 19.0797 18.1094 20.9412 18.7245 C 22.8011 19.3395 24.3186 20.2201 25.4939 21.3694 L 23.2624 26.5388 C 22.2045 25.5495 21.0194 24.8058 19.7089 24.3111 C 18.3967 23.8164 17.1138 23.5674 15.862 23.5674 C 13.2376 23.5674 11.1919 24.4002 9.72322 26.0639 C 8.25455 27.7277 7.52103 30.1451 7.52103 33.3143 C 7.52103 36.4836 8.25618 38.9208 9.72322 40.6241 C 11.1919 42.3275 13.2376 43.18 15.862 43.18 C 17.0747 43.18 18.338 42.9425 19.6502 42.4676 C 20.9624 41.9927 22.1653 41.259 23.264 40.2696 L 25.4955 45.3797 C 24.2811 46.529 22.744 47.4211 20.8841 48.0542 C 19.0243 48.6874 17.1334 49.0057 15.2148 49.0057 L 15.2132 48.9974 Z" stroke-linecap="round" />
</g>
		<g transform="matrix(1 0 0 1 -79.94 2.03)"  >
<path style="stroke: none; stroke-width: 1; stroke-dasharray: none; stroke-linecap: butt; stroke-dashoffset: 0; stroke-linejoin: miter; stroke-miterlimit: 4; fill: rgb(51,51,51); fill-rule: nonzero; opacity: 1;" vector-effect="non-scaling-stroke"  transform=" translate(-33.56, -26.53)" d="M 29.8872 48.4026 L 29.8872 4.66602 L 37.2306 4.66602 L 37.2306 48.4026 L 29.8872 48.4026 Z" stroke-linecap="round" />
</g>
		<g transform="matrix(1 0 0 1 88.21 8.9)"  >
<path style="stroke: none; stroke-width: 1; stroke-dasharray: none; stroke-linecap: butt; stroke-dashoffset: 0; stroke-linejoin: miter; stroke-miterlimit: 4; fill: rgb(51,51,51); fill-rule: nonzero; opacity: 1;" vector-effect="non-scaling-stroke"  transform=" translate(-201.71, -33.4)" d="M 187.993 48.4036 L 176.421 18.3945 L 183.999 18.3945 L 192.34 41.7485 L 190.813 41.7485 L 199.273 18.3945 L 204.501 18.3945 L 212.902 41.7485 L 211.55 41.7485 L 219.833 18.3945 L 227 18.3945 L 215.428 48.4036 L 208.967 48.4036 L 200.096 24.5154 L 203.21 24.5154 L 194.517 48.4036 L 187.996 48.4036 L 187.993 48.4036 Z" stroke-linecap="round" />
</g>
		<g transform="matrix(1 0 0 1 31.39 -0.26)"  >
<linearGradient id="SVGID_paint0_linear_0_1_3" gradientUnits="userSpaceOnUse" gradientTransform="matrix(1 0 0 1 0 0)"  x1="125.075" y1="5.56339" x2="168.735" y2="48.7225">
<stop offset="15%" style="stop-color:rgb(146,107,242);stop-opacity: 1"/>
<stop offset="47%" style="stop-color:rgb(116,74,207);stop-opacity: 1"/>
<stop offset="77%" style="stop-color:rgb(95,51,183);stop-opacity: 1"/>
<stop offset="95%" style="stop-color:rgb(88,43,175);stop-opacity: 1"/>
</linearGradient>
<path style="stroke: none; stroke-width: 1; stroke-dasharray: none; stroke-linecap: butt; stroke-dashoffset: 0; stroke-linejoin: miter; stroke-miterlimit: 4; fill: url(#SVGID_paint0_linear_0_1_3); fill-rule: nonzero; opacity: 1;" vector-effect="non-scaling-stroke"  transform=" translate(-144.89, -24.24)" d="M 145.381 24.9352 C 144.72 22.564 142.883 20.2885 140.07 18.3575 C 139.411 17.9057 138.702 17.4754 137.956 17.0747 C 138.52 16.0869 139.16 15.1437 139.876 14.2863 C 143.625 9.80117 150.406 6.66653 157.154 6.30211 C 162.938 5.98881 168.053 7.68228 171.557 11.0676 C 173.073 12.5318 174.364 14.377 175.324 16.4167 L 182.008 16.4167 C 180.72 12.639 178.547 9.15479 175.835 6.53626 C 171.081 1.94561 164.33 -0.361267 156.823 0.046022 C 148.323 0.506077 140.016 4.41242 135.144 10.2431 C 134.014 11.5952 133.004 13.1271 132.136 14.7562 C 131.885 14.687 131.633 14.6194 131.38 14.5567 C 127.902 13.691 124.42 13.4998 121.315 14.006 C 118.697 14.4314 116.348 15.3598 114.385 16.7284 L 107.769 33.8856 C 108.167 36.298 109.042 38.5917 110.37 40.6034 C 114.296 46.5512 121.538 49.5209 128.818 48.1655 L 127.698 42.0034 C 122.852 42.9054 118.072 40.9893 115.521 37.1242 C 112.426 32.4329 113.678 26.1356 116.615 22.9927 C 119.28 20.14 124.195 19.2513 129.781 20.6116 C 129.021 23.2945 128.689 25.9757 128.889 28.3485 C 129.116 31.0247 130.056 33.1354 131.607 34.4529 C 133.092 35.7127 135.261 36.3294 137.555 36.1463 C 139.796 35.9666 141.889 35.0366 143.299 33.5954 C 145.716 31.1237 146.086 27.4647 145.382 24.9368 L 145.381 24.9352 Z M 139.498 28.985 C 139.031 29.7336 138.058 30.1376 137.216 29.9743 C 135.998 29.7402 135.476 28.4029 135.227 27.7631 C 134.392 25.6261 135.302 23.5352 135.603 22.9103 C 136.327 23.1741 138.435 24.0563 139.335 26.1818 C 139.61 26.8331 140.107 28.0072 139.498 28.985 Z" stroke-linecap="round" />
</g>
		<g transform="matrix(1 0 0 1 48.31 12.61)"  >
<linearGradient id="SVGID_paint1_linear_0_1_4" gradientUnits="userSpaceOnUse" gradientTransform="matrix(1 0 0 1 0 0)"  x1="127.755" y1="2.85252" x2="171.414" y2="46.0116">
<stop offset="15%" style="stop-color:rgb(146,107,242);stop-opacity: 1"/>
<stop offset="47%" style="stop-color:rgb(116,74,207);stop-opacity: 1"/>
<stop offset="77%" style="stop-color:rgb(95,51,183);stop-opacity: 1"/>
<stop offset="95%" style="stop-color:rgb(88,43,175);stop-opacity: 1"/>
</linearGradient>
<path style="stroke: none; stroke-width: 1; stroke-dasharray: none; stroke-linecap: butt; stroke-dashoffset: 0; stroke-linejoin: miter; stroke-miterlimit: 4; fill: url(#SVGID_paint1_linear_0_1_4); fill-rule: nonzero; opacity: 1;" vector-effect="non-scaling-stroke"  transform=" translate(-161.81, -37.11)" d="M 176.58 28.9042 C 175.8 31.747 173.808 35.833 168.75 39.1507 C 158.659 45.7679 146.049 39.8614 145.516 39.6075 L 142.865 45.2716 C 143.897 45.7663 150.077 48.5612 157.673 48.5612 C 162.245 48.5612 167.332 47.5488 172.12 44.4092 C 176.492 41.5417 179.149 38.1745 180.762 35.0993 L 177.124 25.664 C 177.047 26.7655 176.868 27.8505 176.58 28.9042 Z" stroke-linecap="round" />
</g>
		<g transform="matrix(1 0 0 1 -36.63 16.19)"  >
<path style="stroke: none; stroke-width: 1; stroke-dasharray: none; stroke-linecap: butt; stroke-dashoffset: 0; stroke-linejoin: miter; stroke-miterlimit: 4; fill: rgb(51,51,51); fill-rule: nonzero; opacity: 1;" vector-effect="non-scaling-stroke"  transform=" translate(-76.87, -40.69)" d="M 77.6342 41.7478 L 76.8763 39.624 L 76.1069 41.7478 L 77.6342 41.7478 Z" stroke-linecap="round" />
</g>
		<g transform="matrix(1 0 0 1 -26.56 2.13)"  >
<path style="stroke: none; stroke-width: 1; stroke-dasharray: none; stroke-linecap: butt; stroke-dashoffset: 0; stroke-linejoin: miter; stroke-miterlimit: 4; fill: rgb(51,51,51); fill-rule: nonzero; opacity: 1;" vector-effect="non-scaling-stroke"  transform=" translate(-86.94, -26.63)" d="M 85.3883 24.5147 L 86.9597 28.7492 L 88.5017 24.5147 L 85.3883 24.5147 Z" stroke-linecap="round" />
</g>
		<g transform="matrix(1 0 0 1 -39.03 8.9)"  >
<path style="stroke: none; stroke-width: 1; stroke-dasharray: none; stroke-linecap: butt; stroke-dashoffset: 0; stroke-linejoin: miter; stroke-miterlimit: 4; fill: rgb(51,51,51); fill-rule: nonzero; opacity: 1;" vector-effect="non-scaling-stroke"  transform=" translate(-74.47, -33.4)" d="M 77.5951 37.6386 L 79.7696 43.7249 L 72.656 43.7249 L 75.52 35.8215 L 69.2949 18.3922 L 63.3354 18.3922 C 65.5768 19.8119 67.3584 21.7412 68.6347 24.1387 C 70.017 26.7375 70.7195 29.8408 70.7195 33.3662 C 70.7195 35.6005 70.4376 37.67 69.8785 39.5531 L 73.2901 48.4013 L 79.8103 48.4013 L 85.6067 32.4758 L 82.4999 24.1074 L 77.5983 37.6386 L 77.5951 37.6386 Z" stroke-linecap="round" />
</g>
		<g transform="matrix(1 0 0 1 -15.82 8.9)"  >
<path style="stroke: none; stroke-width: 1; stroke-dasharray: none; stroke-linecap: butt; stroke-dashoffset: 0; stroke-linejoin: miter; stroke-miterlimit: 4; fill: rgb(51,51,51); fill-rule: nonzero; opacity: 1;" vector-effect="non-scaling-stroke"  transform=" translate(-97.68, -33.4)" d="M 105.127 18.3938 L 98.2249 37.8546 L 100.337 43.7265 L 93.413 43.7265 L 96.1401 36.0342 L 89.7943 18.3938 L 84.5668 18.3938 L 83.0671 22.536 L 90.655 22.536 L 87.6851 30.6966 L 94.259 48.4029 L 100.721 48.4029 L 107.526 30.7543 C 107.531 30.0914 107.568 29.4252 107.645 28.7574 C 108.088 24.9203 109.717 21.2498 112.111 18.6857 C 112.149 18.6461 112.188 18.6082 112.224 18.5703 L 112.292 18.3938 L 105.125 18.3938 L 105.127 18.3938 Z" stroke-linecap="round" />
</g>
		<g transform="matrix(1 0 0 1 -3.62 0.16)"  >
<path style="stroke: none; stroke-width: 1; stroke-dasharray: none; stroke-linecap: butt; stroke-dashoffset: 0; stroke-linejoin: miter; stroke-miterlimit: 4; fill: rgb(51,51,51); fill-rule: nonzero; opacity: 1;" vector-effect="non-scaling-stroke"  transform=" translate(-109.88, -24.66)" d="M 107.645 28.7574 C 107.568 29.4252 107.531 30.0914 107.526 30.7543 L 112.225 18.5703 C 112.188 18.6098 112.149 18.6461 112.113 18.6857 C 109.718 21.2498 108.09 24.9203 107.647 28.7574 L 107.645 28.7574 Z" stroke-linecap="round" />
</g>
		<g transform="matrix(1 0 0 1 -37.29 15.27)"  >
<path style="stroke: none; stroke-width: 1; stroke-dasharray: none; stroke-linecap: butt; stroke-dashoffset: 0; stroke-linejoin: miter; stroke-miterlimit: 4; fill: rgb(51,51,51); fill-rule: nonzero; opacity: 1;" vector-effect="non-scaling-stroke"  transform=" translate(-76.21, -39.77)" d="M 79.7679 43.7265 L 77.5951 37.6386 L 76.8762 39.624 L 77.6342 41.7478 L 76.1069 41.7478 L 76.8762 39.624 L 75.5168 35.8231 L 72.6544 43.7265 L 79.7679 43.7265 Z" stroke-linecap="round" />
</g>
		<g transform="matrix(1 0 0 1 -26.93 3.01)"  >
<path style="stroke: none; stroke-width: 1; stroke-dasharray: none; stroke-linecap: butt; stroke-dashoffset: 0; stroke-linejoin: miter; stroke-miterlimit: 4; fill: rgb(51,51,51); fill-rule: nonzero; opacity: 1;" vector-effect="non-scaling-stroke"  transform=" translate(-86.57, -27.51)" d="M 83.0655 22.536 L 82.495 24.1091 L 85.6035 32.4774 L 86.9597 28.7492 L 85.3883 24.5147 L 88.5017 24.5147 L 86.9597 28.7492 L 87.6834 30.6966 L 90.6534 22.536 L 83.0655 22.536 Z" stroke-linecap="round" />
</g>
		<g transform="matrix(1 0 0 1 -16.63 15.38)"  >
<path style="stroke: none; stroke-width: 1; stroke-dasharray: none; stroke-linecap: butt; stroke-dashoffset: 0; stroke-linejoin: miter; stroke-miterlimit: 4; fill: rgb(51,51,51); fill-rule: nonzero; opacity: 1;" vector-effect="non-scaling-stroke"  transform=" translate(-96.87, -39.88)" d="M 100.336 43.7265 L 98.2233 37.8546 L 97.5142 39.8565 L 98.1939 41.7478 L 96.8426 41.7478 L 97.5142 39.8565 L 96.1384 36.0342 L 93.4114 43.7265 L 100.336 43.7265 Z" stroke-linecap="round" />
</g>
		<g transform="matrix(1 0 0 1 -15.98 16.3)"  >
<path style="stroke: none; stroke-width: 1; stroke-dasharray: none; stroke-linecap: butt; stroke-dashoffset: 0; stroke-linejoin: miter; stroke-miterlimit: 4; fill: rgb(51,51,51); fill-rule: nonzero; opacity: 1;" vector-effect="non-scaling-stroke"  transform=" translate(-97.52, -40.8)" d="M 98.194 41.7478 L 97.5142 39.8565 L 96.8427 41.7478 L 98.194 41.7478 Z" stroke-linecap="round" />
</g>
		<g transform="matrix(1 0 0 1 -59.42 8.9)"  >
<path style="stroke: none; stroke-width: 1; stroke-dasharray: none; stroke-linecap: butt; stroke-dashoffset: 0; stroke-linejoin: miter; stroke-miterlimit: 4; fill: rgb(51,51,51); fill-rule: nonzero; opacity: 1;" vector-effect="non-scaling-stroke"  transform=" translate(-54.08, -33.4)" d="M 54.0473 48.9971 C 50.9926 48.9971 48.3487 48.3639 46.1172 47.0959 C 43.8856 45.8279 42.1529 44.0256 40.9189 41.6874 C 39.685 39.3508 39.0688 36.5773 39.0688 33.3685 C 39.0688 30.1596 39.685 27.396 40.9189 25.0792 C 42.1529 22.7608 43.8856 20.9701 46.1172 19.702 C 48.3487 18.434 50.9926 17.8008 54.0473 17.8008 C 57.102 17.8008 59.7541 18.4356 62.0068 19.702 C 64.2579 20.9701 66.0021 22.7625 67.2344 25.0792 C 68.4683 27.3976 69.0845 30.1596 69.0845 33.3685 C 69.0845 36.5773 68.4683 39.3508 67.2344 41.6874 C 66.0004 44.0256 64.2579 45.8279 62.0068 47.0959 C 59.7541 48.3639 57.102 48.9971 54.0473 48.9971 Z M 54.0473 43.2918 C 56.3571 43.2918 58.1974 42.4706 59.5699 40.825 C 60.9408 39.181 61.6254 36.6944 61.6254 33.3668 C 61.6254 30.0392 60.9392 27.5642 59.5699 25.9383 C 58.199 24.3141 56.3587 23.5028 54.0473 23.5028 C 51.7359 23.5028 49.8956 24.3158 48.5247 25.9383 C 47.1539 27.5625 46.4692 30.0392 46.4692 33.3668 C 46.4692 36.6944 47.1539 39.181 48.5247 40.825 C 49.894 42.469 51.7359 43.2918 54.0473 43.2918 Z" stroke-linecap="round" />
</g>
</g>
</g>
</svg>